<svg id="Layer_1" data-name="Layer 1" xmlns="http://www.w3.org/2000/svg" viewBox="0 0 576 335.36"><defs><style>.cls-1{fill:#1e1e24;}.cls-2{fill:#00adbf;}.cls-3{fill:#9dbbae;}</style></defs><title>epochLogo</title><rect class="cls-1" width="576" height="335.36"/><rect class="cls-2" x="475.52" y="112.83" width="69.65" height="109.71"/><path class="cls-3" d="M101.52,206c3.67,0,7,2,7,7s-3.38,7-7,7H38.93V110.44h62.59c3.67,0,7,2,7,7s-3.38,7-7,7H53v33.69H73.75c3.66,0,7,2,7,7s-3.38,7-7,7H53V206Z" transform="translate(0 2.43)"/><path class="cls-3" d="M140.42,213.06c0,4.51-2,7-7,7s-7-2.54-7-7V110.44h46.8c6.48,0,11.14,1,16.21,5.78,6.06,5.64,6.63,10.85,6.63,18.47v19.17c0,7.19-.56,12.26-5.78,18-5.5,6.2-11.28,6.77-18.89,6.77H140.42Zm0-48.49h31.29c8.32,0,10.15-2.11,10.15-10.15V134.69c0-8-1.83-10.15-10.15-10.15H140.42Z" transform="translate(0 2.43)"/><path class="cls-3" d="M279.68,150.05a32,32,0,0,1,3.67,15.65c0,6.77-1.83,11-4.65,16.77l-13,25.94c-3.38,6.77-9,11.7-17.2,11.7s-13.81-4.93-17.2-11.7l-13-25.94c-2.82-5.78-4.65-10-4.65-16.77a32,32,0,0,1,3.67-15.65L231.48,122c3.38-6.63,9.16-11.56,17.06-11.56s13.67,4.93,17.06,11.56Zm-26.36-21.29c-1.13-2.25-1.83-4.23-4.79-4.23s-3.66,2-4.79,4.23l-12.69,25.51c-2.11,4.09-3.24,6.77-3.24,11.42a19,19,0,0,0,2.4,9.3l13.53,26.78c1,2,2,4.23,4.79,4.23s3.81-2.26,4.79-4.23L266.86,175a19,19,0,0,0,2.4-9.3c0-4.65-1.13-7.33-3.24-11.42Z" transform="translate(0 2.43)"/><path class="cls-3" d="M339,220.11c-10.57,0-16.63-4.23-21.14-13.39l-13-26.22a31.65,31.65,0,0,1-3.81-14.8c0-6.2,1.13-10,3.95-15.65L318,124c4.79-9.73,10.85-13.53,21.71-13.53h24c3.1,0,7,1.69,7,7,0,5.07-3.81,7-7,7H340.15c-6.06,0-7,.56-9.73,5.92L318.16,155c-1.83,3.81-3,6.34-3,10.71,0,3.95,1.27,6.34,3,9.73l12,24.39c2.82,5.78,4.23,6.2,10.57,6.2h23c3.1,0,7,1.69,7,7,0,5.07-3.81,7-7,7Z" transform="translate(0 2.43)"/><path class="cls-3" d="M402.59,172.32v40.74c0,4.51-2,7-7,7s-7-2.54-7-7V117.49c0-4.51,2-7,7-7s7,2.54,7,7v40.74H444V117.49c0-4.51,2-7,7-7s7,2.54,7,7v95.57c0,4.51-2,7-7,7s-7-2.54-7-7V172.32Z" transform="translate(0 2.43)"/></svg>